<svg width="750" height="8" viewBox="0 0 750 8" fill="none" xmlns="http://www.w3.org/2000/svg">
<g clip-path="url(#clip0_550_2179)">
<path d="M-6 0H34L28 8H-12L-6 0Z" fill="#FF7676"/>
<path d="M126 0H166L160 8H120L126 0Z" fill="#FF7676"/>
<path d="M258 0H298L292 8H252L258 0Z" fill="#FF7676"/>
<path d="M390 0H430L424 8H384L390 0Z" fill="#FF7676"/>
<path d="M522 0H562L556 8H516L522 0Z" fill="#FF7676"/>
<path d="M654 0H694L688 8H648L654 0Z" fill="#FF7676"/>
<path d="M60 0H100L94 8H54L60 0Z" fill="#8497FF"/>
<path d="M192 0H232L226 8H186L192 0Z" fill="#8497FF"/>
<path d="M324 0H364L358 8H318L324 0Z" fill="#8497FF"/>
<path d="M456 0H496L490 8H450L456 0Z" fill="#8497FF"/>
<path d="M588 0H628L622 8H582L588 0Z" fill="#8497FF"/>
<path d="M720 0H760L754 8H714L720 0Z" fill="#8497FF"/>
</g>
<defs>
<clipPath id="clip0_550_2179">
<rect width="750" height="8" fill="white"/>
</clipPath>
</defs>
</svg>
