<svg width="60" height="60" viewBox="0 0 60 60" fill="none" xmlns="http://www.w3.org/2000/svg">
<rect width="60" height="60" rx="8" fill="#5BD2A0" fill-opacity="0.18"/>
<path d="M41.6666 16.6667H18.3333C17.8913 16.6667 17.4673 16.4912 17.1548 16.1786C16.8422 15.866 16.6666 15.4421 16.6666 15.0001C16.6666 14.5581 16.8422 14.1341 17.1548 13.8216C17.4673 13.509 17.8913 13.3334 18.3333 13.3334H41.6666C42.1087 13.3334 42.5326 13.509 42.8451 13.8216C43.1577 14.1341 43.3333 14.5581 43.3333 15.0001C43.3333 15.4421 43.1577 15.866 42.8451 16.1786C42.5326 16.4912 42.1087 16.6667 41.6666 16.6667ZM28.8166 20.4834C28.9751 20.3317 29.162 20.2127 29.3666 20.1334C29.5661 20.0452 29.7818 19.9997 30 19.9997C30.2181 19.9997 30.4338 20.0452 30.6333 20.1334C30.8379 20.2127 31.0248 20.3317 31.1833 20.4834L37.85 27.1501C38.1638 27.4639 38.3401 27.8896 38.3401 28.3334C38.3401 28.7773 38.1638 29.2029 37.85 29.5167C37.5361 29.8306 37.1105 30.0069 36.6666 30.0069C36.2228 30.0069 35.7971 29.8306 35.4833 29.5167L31.6666 25.6834V45.0001C31.6666 45.4421 31.491 45.866 31.1785 46.1786C30.8659 46.4912 30.442 46.6667 30 46.6667C29.5579 46.6667 29.134 46.4912 28.8214 46.1786C28.5089 45.866 28.3333 45.4421 28.3333 45.0001V25.6834L24.5166 29.5167C24.3612 29.6721 24.1767 29.7954 23.9737 29.8795C23.7707 29.9636 23.5531 30.0069 23.3333 30.0069C23.1135 30.0069 22.8959 29.9636 22.6929 29.8795C22.4898 29.7954 22.3054 29.6721 22.15 29.5167C21.9946 29.3613 21.8713 29.1769 21.7872 28.9738C21.7031 28.7708 21.6598 28.5532 21.6598 28.3334C21.6598 28.1136 21.7031 27.896 21.7872 27.693C21.8713 27.49 21.9946 27.3055 22.15 27.1501L28.8166 20.4834Z" fill="#1BDB8A"/>
</svg>
