<svg width="100" height="36" viewBox="0 0 100 36" fill="none" xmlns="http://www.w3.org/2000/svg">
<path d="M83.7584 36H0V0H100L93.5039 28.2416C92.4595 32.7823 88.4177 36 83.7584 36Z" fill="#FF5050"/>
<path d="M9.87786 15.4833L9.70565 17.2148H12.3056C11.4796 19.0856 10.2953 20.7374 8.79078 22.1902L9.4069 24.2401C10.4556 22.9465 11.3761 21.5335 12.1305 19.9811L11.4377 26.9468H13.2577L14 19.4836C14.4228 20.2598 14.9238 21.2549 15.4831 22.4689L16.7234 20.8568C15.8743 19.7423 15.0352 18.7273 14.1663 17.8119L14.2256 17.2148H16.4656L16.6379 15.4833H14.3979L15.0808 8.61722H13.2608L12.5779 15.4833H9.87786ZM16.2081 9.95064C15.9298 11.5428 15.5492 12.9558 15.0685 14.1698L16.2489 14.5679C16.8576 13.2742 17.3041 11.8015 17.5903 10.1298L16.2081 9.95064ZM11.7585 10.2492L10.3549 10.687C10.5662 11.9806 10.7116 13.3339 10.8131 14.7271L12.1047 14.4086C12.0391 12.8563 11.9177 11.4632 11.7585 10.2492ZM22.4267 8.55751L22.3099 9.73172H18.1699L18.0175 11.2642H22.1575L22.0605 12.2393H18.5005L18.3521 13.732H21.9121L21.8131 14.7271H17.2731L17.1167 16.2993H27.9567L28.1131 14.7271H23.6331L23.7321 13.732H27.1721L27.3205 12.2393H23.8805L23.9775 11.2642H27.9975L28.1499 9.73172H24.1299L24.2467 8.55751H22.4267ZM19.3179 21.3146H24.6979L24.591 22.3893H19.211L19.3179 21.3146ZM24.8404 19.8816H19.4604L19.5732 18.7472H24.9532L24.8404 19.8816ZM19.0705 23.8023H24.4504L24.3713 24.5984C24.3277 25.0362 24.106 25.2551 23.726 25.2551L22.4358 25.1556L22.7316 26.8075H24.1116C25.3516 26.8075 26.0329 26.1905 26.1537 24.9765L26.9256 17.2148H17.9456L16.9817 26.907H18.7617L19.0705 23.8023ZM32.2249 8.77643L30.8022 10.0103C32.1074 11.1646 33.1005 12.2393 33.7615 13.2344L35.2322 11.9209C34.4351 10.886 33.44 9.83123 32.2249 8.77643ZM41.9113 26.6084H46.5113L47.1774 24.7377C46.6135 24.7775 45.8295 24.8173 44.8275 24.8372C43.8055 24.8571 42.8036 24.877 41.8236 24.877C40.2636 24.877 38.9255 24.8571 37.8075 24.8372C36.6115 24.7974 35.7493 24.6183 35.177 24.3396C34.7227 24.0809 34.2823 23.6829 33.8558 23.1455C33.7676 23.0261 33.6756 22.9465 33.6035 22.8669L34.3537 15.3241H29.8937L29.7195 17.0755H32.3995L31.8393 22.7077C30.9997 23.1057 29.9788 24.1207 28.8165 25.7527L30.0878 27.0463C31.2879 25.2352 32.097 24.3396 32.537 24.3396C32.757 24.3396 33.0012 24.4989 33.2475 24.8372C33.7802 25.5138 34.4327 25.9915 35.209 26.2303C36.0092 26.4293 37.0573 26.5487 38.3553 26.5686C39.6333 26.5885 40.8313 26.6084 41.9113 26.6084ZM41.7907 8.51771L41.5531 10.9059H39.4331C39.6866 10.3686 39.924 9.79142 40.1634 9.19437L38.379 8.83614C37.7507 10.5278 36.8324 12.1199 35.6039 13.6126L37.143 14.6276C37.6024 14.0305 38.0257 13.3937 38.453 12.717H41.373L41.1276 15.1848H35.9676L35.7874 16.9959H38.8474C38.6586 18.0905 38.3855 19.0259 38.0103 19.7821C37.4175 20.9165 36.2825 21.8718 34.6253 22.648L35.7188 24.1207C37.6978 23.1256 39.0205 21.8917 39.6909 20.3792C40.1259 19.4239 40.4388 18.2895 40.6474 16.9959H42.3074L41.7809 22.2898C41.7334 22.7674 41.8318 23.1853 42.1182 23.5237C42.3885 23.8222 42.8126 23.9814 43.4126 23.9814H44.8326C45.5346 23.9615 46.0304 23.8023 46.3382 23.5237C46.6479 23.2251 46.9688 22.2101 47.299 20.4986L45.6945 19.9413C45.4999 21.2947 45.3066 22.031 45.1328 22.1703C44.9809 22.2898 44.793 22.3694 44.593 22.3694H44.153C43.753 22.3694 43.5708 22.1902 43.6025 21.8718L44.0874 16.9959H47.3274L47.5076 15.1848H42.9676L43.213 12.717H47.053L47.2331 10.9059H43.3931L43.6307 8.51771H41.7907ZM53.6025 8.3983C53.2719 9.71182 52.9052 10.9855 52.5425 12.2194H50.2225L50.0424 14.0305H51.9624C51.2864 16.0008 50.5843 17.8318 49.8141 19.5433C50.8149 20.3394 51.7397 21.0956 52.5864 21.832C51.5459 23.245 50.2651 24.4591 48.7442 25.474L49.8858 27.0662C51.4567 25.9517 52.8113 24.5984 53.9457 23.046C54.7504 23.8023 55.4592 24.5188 56.0339 25.1755L57.4823 23.6829C56.8696 23.0062 56.0468 22.2301 55.0119 21.3743C56.3216 19.0657 57.2108 16.359 57.6596 13.2543L57.7625 12.2194H54.4225C54.7553 11.085 55.0961 9.87103 55.4467 8.55751L53.6025 8.3983ZM53.6048 20.2399C53.1044 19.8418 52.5479 19.404 51.9515 18.9662C52.5641 17.6327 53.2084 15.9809 53.8624 14.0305H55.7224C55.3327 16.3391 54.6269 18.4089 53.6048 20.2399ZM57.7892 16.777L57.6071 18.6079H61.9471L61.4166 23.9416C61.3493 24.6183 61.1156 24.9566 60.7356 24.9566C59.7756 24.9566 58.8776 24.9367 58.0576 24.9367L58.3795 26.7279H61.3395C62.4595 26.7279 63.1127 25.9915 63.2592 24.5188L63.8471 18.6079H67.7471L67.9292 16.777H64.0292L64.1994 15.0654C65.4982 13.8713 66.6829 12.6175 67.7555 11.2841L67.9376 9.45309H59.0776L58.8955 11.2841H65.5755C64.5328 12.518 63.4459 13.5927 62.3568 14.4882L62.1292 16.777H57.7892ZM85.0086 16.1799C85.7686 16.1799 86.3424 16.0406 86.7462 15.8018C87.1719 15.543 87.5311 14.747 87.8057 13.3937L86.1411 12.8364C85.998 13.6723 85.8085 14.1698 85.5907 14.3489C85.4168 14.4882 85.1689 14.5679 84.8089 14.5679H81.2689C80.8089 14.5679 80.6087 14.3688 80.6483 13.9708L80.7156 13.2941C83.2647 12.3986 85.5096 11.3438 87.4303 10.1298L86.335 8.87594C84.88 9.83123 83.0729 10.7069 80.8937 11.503L81.1748 8.67692H79.3148L78.9704 12.1398C77.9387 12.4583 76.849 12.7568 75.6994 13.0553L76.5709 14.548C77.3107 14.3489 78.0525 14.13 78.7923 13.931L78.7507 14.3489C78.6299 15.5629 79.2486 16.1799 80.6086 16.1799H85.0086ZM85.4254 17.0158H72.4254L71.7861 23.4441H73.6861L74.1552 18.7273H83.3352L82.8918 23.1853H84.8118L85.4254 17.0158ZM79.7276 23.0261L78.6251 24.4591C80.9198 25.1158 83.1107 26.0114 85.2359 27.1657L86.4582 25.5338C84.4572 24.5387 82.2203 23.7028 79.7276 23.0261ZM77.7699 19.3841C77.406 21.434 76.7415 22.8868 75.7764 23.7426C74.6893 24.6183 72.5398 25.1158 69.364 25.275L69.9537 26.9866C73.7054 26.6682 76.1386 25.9318 77.2495 24.8173C78.2546 23.9615 79.0488 22.2101 79.5941 19.5433L77.7699 19.3841ZM73.1053 12.9956L72.7688 16.3789H74.6088L75.0858 11.5826C75.9791 10.8462 76.7363 10.07 77.3574 9.25408L75.8507 8.51771C74.5782 10.0501 72.6836 11.4035 70.1888 12.5578L70.5647 14.4086C71.4483 13.9708 72.2958 13.4932 73.1053 12.9956Z" fill="white"/>
</svg>
