<svg width="48" height="48" viewBox="0 0 48 48" fill="none" xmlns="http://www.w3.org/2000/svg">
<path d="M16.0002 22C15.6047 22 15.218 22.1173 14.8891 22.3371C14.5602 22.5568 14.3038 22.8692 14.1525 23.2346C14.0011 23.6001 13.9615 24.0022 14.0386 24.3902C14.1158 24.7781 14.3063 25.1345 14.586 25.4142C14.8657 25.6939 15.2221 25.8844 15.61 25.9616C15.998 26.0387 16.4001 25.9991 16.7656 25.8478C17.131 25.6964 17.4434 25.44 17.6632 25.1111C17.8829 24.7822 18.0002 24.3956 18.0002 24C18.0002 23.4696 17.7895 22.9609 17.4144 22.5858C17.0394 22.2107 16.5307 22 16.0002 22ZM24.0002 22C23.6047 22 23.218 22.1173 22.8891 22.3371C22.5602 22.5568 22.3038 22.8692 22.1525 23.2346C22.0011 23.6001 21.9615 24.0022 22.0387 24.3902C22.1158 24.7781 22.3063 25.1345 22.586 25.4142C22.8657 25.6939 23.2221 25.8844 23.61 25.9616C23.998 26.0387 24.4001 25.9991 24.7656 25.8478C25.131 25.6964 25.4434 25.44 25.6632 25.1111C25.8829 24.7822 26.0002 24.3956 26.0002 24C26.0002 23.4696 25.7895 22.9609 25.4144 22.5858C25.0394 22.2107 24.5307 22 24.0002 22ZM32.0002 22C31.6047 22 31.218 22.1173 30.8891 22.3371C30.5602 22.5568 30.3038 22.8692 30.1525 23.2346C30.0011 23.6001 29.9615 24.0022 30.0387 24.3902C30.1158 24.7781 30.3063 25.1345 30.586 25.4142C30.8657 25.6939 31.2221 25.8844 31.61 25.9616C31.998 26.0387 32.4001 25.9991 32.7656 25.8478C33.131 25.6964 33.4434 25.44 33.6632 25.1111C33.8829 24.7822 34.0002 24.3956 34.0002 24C34.0002 23.4696 33.7895 22.9609 33.4144 22.5858C33.0394 22.2107 32.5307 22 32.0002 22ZM24.0002 4C21.3738 4 18.7731 4.51732 16.3466 5.52241C13.92 6.5275 11.7153 8.00069 9.85808 9.85786C6.10736 13.6086 4.00022 18.6957 4.00022 24C3.98274 28.6183 5.58181 33.0971 8.52022 36.66L4.52022 40.66C4.24271 40.9412 4.05471 41.2984 3.97996 41.6864C3.90522 42.0743 3.94706 42.4758 4.10022 42.84C4.26634 43.1999 4.53563 43.5022 4.87391 43.7088C5.2122 43.9153 5.60422 44.0167 6.00022 44H24.0002C29.3046 44 34.3916 41.8929 38.1424 38.1421C41.8931 34.3914 44.0002 29.3043 44.0002 24C44.0002 18.6957 41.8931 13.6086 38.1424 9.85786C34.3916 6.10714 29.3046 4 24.0002 4ZM24.0002 40H10.8202L12.6802 38.14C12.8692 37.9548 13.0195 37.7339 13.1225 37.4901C13.2255 37.2464 13.2791 36.9846 13.2802 36.72C13.2727 36.1925 13.057 35.6893 12.6802 35.32C10.0614 32.7041 8.43057 29.2611 8.0656 25.5776C7.70064 21.8941 8.62411 18.198 10.6787 15.119C12.7332 12.0401 15.7918 9.76872 19.3333 8.69195C22.8747 7.61517 26.6799 7.79961 30.1007 9.21383C33.5214 10.628 36.3459 13.1845 38.0931 16.4478C39.8403 19.711 40.402 23.4791 39.6825 27.11C38.963 30.7409 37.0068 34.0101 34.1473 36.3605C31.2878 38.7109 27.7017 39.9971 24.0002 40Z" fill="#111111"/>
</svg>
