<svg width="38" height="38" viewBox="0 0 38 38" fill="none" xmlns="http://www.w3.org/2000/svg">
<g clip-path="url(#clip0_550_2145)">
<path d="M5.01245 13.9375V27.6148C5.01245 29.2151 6.30981 30.5125 7.91018 30.5125H26.3397C27.9401 30.5125 29.2374 29.2151 29.2374 27.6148V13.9375" stroke="#757575" stroke-width="3"/>
<path d="M13.4738 16.7125C13.4738 16.6842 13.4967 16.6613 13.5249 16.6613H20.7249C20.7531 16.6613 20.776 16.6842 20.776 16.7125C20.776 16.7407 20.7531 16.7636 20.7249 16.7636H13.5249C13.4967 16.7636 13.4738 16.7407 13.4738 16.7125Z" stroke="#757575" stroke-width="2.89773"/>
<path d="M13.4738 22.8125C13.4738 22.7843 13.4967 22.7614 13.5249 22.7614H20.7249C20.7531 22.7614 20.776 22.7843 20.776 22.8125C20.776 22.8407 20.7531 22.8636 20.7249 22.8636H13.5249C13.4967 22.8636 13.4738 22.8407 13.4738 22.8125Z" stroke="#757575" stroke-width="2.89773"/>
<path d="M2.4624 15.85C3.26218 15.6298 12.5706 7.68323 17.1249 3.7375L31.7874 15.85" stroke="#757575" stroke-width="3" stroke-linecap="round" stroke-linejoin="round"/>
</g>
<defs>
<clipPath id="clip0_550_2145">
<rect width="35.625" height="35.625" fill="white" transform="translate(1.1875 1.1875)"/>
</clipPath>
</defs>
</svg>
