<svg width="44" height="44" viewBox="0 0 44 44" fill="none" xmlns="http://www.w3.org/2000/svg">
<path fill-rule="evenodd" clip-rule="evenodd" d="M21.9997 34.5333C18.8346 34.5333 15.7595 33.0858 13.164 31.183L17.7793 28.5183C18.9832 29.337 20.436 29.8154 22 29.8154C26.1577 29.8154 29.5294 26.4348 29.5294 22.2667C29.5294 22.0912 29.5234 21.9171 29.5117 21.7447L35.6744 18.1866C36.0845 18.7023 36.4456 19.1969 36.7516 19.6534C36.7516 19.6534 37.9642 21.3696 38 22.2667C37.9821 23.1638 36.7516 25.1382 36.7516 25.1382C34.3198 28.7656 28.4369 34.5333 21.9997 34.5333ZM22 14.7179C23.1761 14.7179 24.2893 14.9884 25.281 15.4707L29.9284 12.7875C27.5542 11.1692 24.8273 10 21.9997 10C15.5625 10 9.66178 16.0261 7.24783 19.6534C7.24783 19.6534 6.01788 21.3696 6 22.2667C6.01788 23.1638 6.54682 24.0993 7.08325 24.9183C7.24391 25.1597 7.42075 25.4116 7.61279 25.6715L14.4915 21.7001C14.7806 17.7964 18.0324 14.7179 22 14.7179ZM35.7909 12.397L7.26305 28.8676L9.15023 32.1363L37.6781 15.6657L35.7909 12.397Z" fill="#C5CFD5"/>
</svg>
