<svg width="44" height="44" viewBox="0 0 44 44" fill="none" xmlns="http://www.w3.org/2000/svg">
<path fill-rule="evenodd" clip-rule="evenodd" d="M36.7516 19.4436C34.3198 15.8951 28.419 10 21.9997 10C15.5625 10 9.66178 15.8951 7.24783 19.4436C7.24783 19.4436 6.01788 21.1224 6 22C6.01788 22.8776 6.54682 23.7927 7.08325 24.594C9.4972 28.1425 15.5625 34 21.9997 34C28.4369 34 34.3198 28.3576 36.7516 24.8091C36.7516 24.8091 37.9821 22.8776 38 22C37.9642 21.1224 36.7516 19.4436 36.7516 19.4436ZM22.0495 29.4818C17.8645 29.4818 14.4706 26.1529 14.4706 22.0486C14.4706 17.9442 17.8645 14.6154 22.0495 14.6154C26.2346 14.6154 29.6285 17.9442 29.6285 22.0486C29.6285 26.1529 26.2346 29.4818 22.0495 29.4818ZM17.2895 22.0862C17.2895 24.6471 19.3989 26.7241 22 26.7241C24.6011 26.7241 26.7105 24.6471 26.7105 22.0862C26.7105 19.5253 24.6011 17.4483 22 17.4483C19.3989 17.4483 17.2895 19.5253 17.2895 22.0862Z" fill="#1BDB8A"/>
</svg>
